<?xml version="1.0" encoding="UTF-8" standalone="no"?>
<svg width="18px" height="19px" viewBox="0 0 18 19" version="1.1" xmlns="http://www.w3.org/2000/svg" xmlns:xlink="http://www.w3.org/1999/xlink" xmlns:sketch="http://www.bohemiancoding.com/sketch/ns">
    <!-- Generator: Sketch 3.3.2 (12043) - http://www.bohemiancoding.com/sketch -->
    <title>Path</title>
    <desc>Created with Sketch.</desc>
    <defs></defs>
    <g id="库存" stroke="none" stroke-width="1" fill="none" fill-rule="evenodd" sketch:type="MSPage">
        <g id="库存列表" sketch:type="MSArtboardGroup" transform="translate(-557.000000, -229.000000)" fill="#959191">
            <g id="info_group1" sketch:type="MSLayerGroup" transform="translate(153.000000, 229.000000)">
                <path d="M405.099884,10.7322922 C404.410182,12.3493155 404.298391,13.8946448 404.852114,14.1801169 C405.232594,14.3808598 405.830118,13.9278847 406.389724,13.097539 C406.611997,14.0015339 407.161144,14.8214514 407.944985,15.4784282 C407.122573,15.7814978 406.586501,16.2748822 406.586501,16.8353981 C406.586501,17.7543835 408.039124,18.5 409.831695,18.5 C411.448408,18.5 412.786625,17.8945125 413.034395,17.1000137 C413.100423,17.0974067 413.356038,17.0974067 413.420105,17.1000137 C413.667875,17.8945125 415.008053,18.5 416.624766,18.5 C418.417337,18.5 419.870614,17.7543835 419.870614,16.8353981 C419.870614,16.2748822 419.334542,15.7814978 418.51213,15.4784282 C419.293356,14.8214514 419.845118,14.0015339 420.064776,13.097539 C420.623729,13.9278847 421.221252,14.3808598 421.601732,14.1801169 C422.156109,13.8946448 422.04628,12.3493155 421.356578,10.7322922 C420.815276,9.46200672 420.079812,8.52542373 419.518245,8.31881496 C419.528705,8.23995167 419.530666,8.15587428 419.530666,8.07440395 C419.530666,7.58297488 419.392726,7.1299998 419.160646,6.76110212 C419.163261,6.73307632 419.163261,6.70244348 419.163261,6.67441768 C419.163261,6.44760426 419.109654,6.23643315 419.017476,6.05328783 C418.87692,2.74819921 416.71956,0.126157895 413.228558,0.126157895 C409.734941,0.126157895 407.576926,2.74819921 407.436371,6.05328783 C407.342231,6.23643315 407.288624,6.44760426 407.288624,6.67441768 C407.288624,6.70244348 407.291239,6.73307632 407.291239,6.76110212 C407.061121,7.1299998 406.92318,7.58297488 406.92318,8.07440395 C406.92318,8.15587428 406.925795,8.23734462 406.93364,8.31881496 C406.376649,8.52542373 405.63857,9.46200672 405.099884,10.7322922 L405.099884,10.7322922 Z" id="Path" sketch:type="MSShapeGroup"></path>
            </g>
        </g>
    </g>
</svg>