<?xml version="1.0" encoding="UTF-8" standalone="no"?>
<svg width="18px" height="21px" viewBox="0 0 18 21" version="1.1" xmlns="http://www.w3.org/2000/svg" xmlns:xlink="http://www.w3.org/1999/xlink" xmlns:sketch="http://www.bohemiancoding.com/sketch/ns">
    <!-- Generator: Sketch 3.3.2 (12043) - http://www.bohemiancoding.com/sketch -->
    <title>Shape Copy</title>
    <desc>Created with Sketch.</desc>
    <defs></defs>
    <g id="入库" stroke="none" stroke-width="1" fill="none" fill-rule="evenodd" sketch:type="MSPage">
        <g id="入库详单-copy" sketch:type="MSArtboardGroup" transform="translate(-1058.000000, -850.000000)" fill="#FFFFFF">
            <g id="Group" sketch:type="MSLayerGroup" transform="translate(386.000000, 674.000000)">
                <path d="M687.945829,179.343629 L687.945829,179.343629 L688.057737,179.343629 L688.805914,180.184867 L688.792854,180.29601 L672.826193,180.29601 L672.813134,180.184867 L673.561311,179.343629 L673.673219,179.343629 L675.452201,194.483496 C675.518444,195.047248 676.064124,195.534106 676.628906,195.534106 L684.990141,195.534106 C685.553613,195.534106 686.100601,195.047276 686.166846,194.483496 L687.945829,179.343629 Z M682.714286,177.438867 L689.142857,177.438867 L689.619048,177.438867 L689.619048,178.391248 L689.142857,178.391248 L672.47619,178.391248 L672,178.391248 L672,177.438867 L672.47619,177.438867 L678.428571,177.438867 L678.428571,176.486486 L682.714286,176.486486 L682.714286,177.438867 Z M688.904762,179.343629 L687.11272,194.594639 C686.989948,195.639478 686.035228,196.486486 684.990141,196.486486 L676.628906,196.486486 C675.57941,196.486486 674.628734,195.63637 674.506328,194.594639 L672.714286,179.343629 L688.904762,179.343629 Z M680.333333,182.438867 L680.333333,193.012012 L680.333333,193.488203 L681.285714,193.488203 L681.285714,193.012012 L681.285714,182.438867 L681.285714,181.962677 L680.333333,181.962677 L680.333333,182.438867 Z M677.731406,182.470881 L678.443828,193.044025 L678.475841,193.519139 L679.426067,193.455112 L679.394054,192.979999 L678.681632,182.406854 L678.649619,181.931741 L677.699393,181.995768 L677.731406,182.470881 Z M682.937415,182.406854 L682.224994,192.979999 L682.19298,193.455112 L683.143207,193.519139 L683.17522,193.044025 L683.887642,182.470881 L683.919655,181.995768 L682.969429,181.931741 L682.937415,182.406854 Z" id="Shape-Copy" sketch:type="MSShapeGroup"></path>
            </g>
        </g>
    </g>
</svg>