<?xml version="1.0" encoding="UTF-8" standalone="no"?>
<svg width="20px" height="22px" viewBox="0 0 20 22" version="1.1" xmlns="http://www.w3.org/2000/svg" xmlns:xlink="http://www.w3.org/1999/xlink" xmlns:sketch="http://www.bohemiancoding.com/sketch/ns">
    <!-- Generator: Sketch 3.3.3 (12072) - http://www.bohemiancoding.com/sketch -->
    <title>Fill 90</title>
    <desc>Created with Sketch.</desc>
    <defs></defs>
    <g id="图标" stroke="none" stroke-width="1" fill="none" fill-rule="evenodd" sketch:type="MSPage">
        <path d="M18.6666667,12.4182187 L15.3333333,12.4182187 C14.9653333,12.4182187 14.6666667,12.7248357 14.6666667,13.1026317 L14.6666667,15.8402835 C14.6666667,16.2187638 14.9653333,16.5246964 15.3333333,16.5246964 L18.6666667,16.5246964 L18.6666667,19.9467612 C18.6666667,20.3252415 18.368,20.6311741 18,20.6311741 L2,20.6311741 C1.632,20.6311741 1.33333333,20.3252415 1.33333333,19.9467612 L1.33333333,6.94291516 L18,6.94291516 C18.368,6.94291516 18.6666667,7.24884774 18.6666667,7.6273281 L18.6666667,12.4182187 L18.6666667,12.4182187 Z M18.6666667,14.4714576 L18.6666667,15.1558705 L16,15.1558705 L16,14.4714576 L16,13.7870446 L18.6666667,13.7870446 L18.6666667,14.4714576 L18.6666667,14.4714576 Z M17.3333333,1.46761158 L17.3333333,5.57408926 L4.33333333,5.57408926 L17.3333333,1.46761158 L17.3333333,1.46761158 Z M18.6666667,5.57408926 L18.6666667,0.783198629 C18.6666667,0.404718269 18.5093333,0.195287907 18.1666667,0.056352079 C17.9026667,-0.0511007537 17.646,0.0132340634 17.3333333,0.0987856818 L0,5.57408926 L0,20.6311741 C0,21.386766 0.597333333,22 1.33333333,22 L18.6666667,22 C19.4026667,22 20,21.386766 20,20.6311741 L20,6.94291516 C20,6.18732326 19.4026667,5.57408926 18.6666667,5.57408926 L18.6666667,5.57408926 Z" id="Fill-90" fill="#FFFFFF" sketch:type="MSShapeGroup"></path>
    </g>
</svg>