<?xml version="1.0" encoding="UTF-8" standalone="no"?>
<svg width="25px" height="24px" viewBox="0 0 25 24" version="1.1" xmlns="http://www.w3.org/2000/svg" xmlns:xlink="http://www.w3.org/1999/xlink" xmlns:sketch="http://www.bohemiancoding.com/sketch/ns">
    <!-- Generator: Sketch 3.3.2 (12043) - http://www.bohemiancoding.com/sketch -->
    <title>Shape</title>
    <desc>Created with Sketch.</desc>
    <defs></defs>
    <g id="入库" stroke="none" stroke-width="1" fill="none" fill-rule="evenodd" sketch:type="MSPage">
        <g id="入库详单" sketch:type="MSArtboardGroup" transform="translate(-422.000000, -837.000000)" fill-opacity="0.8" fill="#FFFFFF">
            <path d="M429.34361,856.546633 L429.34361,856.546633 L427.992931,855.195954 L433.030515,855.317395 L432.018199,855.722488 L445.615745,842.124941 C445.616061,842.124626 445.616062,842.12507 445.612274,842.121282 L442.418282,838.92729 C442.415523,838.924531 442.413913,838.924528 442.414622,838.923819 L428.817076,852.521365 L429.222169,851.509048 L429.34361,856.546633 Z M427.959566,856.579998 L427.838125,851.542414 L441.435671,837.944867 C441.976383,837.404156 442.854572,837.405678 443.397233,837.948339 L446.591225,841.142331 C447.133854,841.68496 447.137493,842.561096 446.594696,843.103893 L432.99715,856.701439 L427.959566,856.579998 Z M435.320608,840.396678 L422.692223,840.396678 L422,840.396678 L422,841.088901 L422,860.165076 L422,860.857299 L422.692223,860.857299 L441.124775,860.857299 L441.816998,860.857299 L441.816998,860.165076 L441.816998,851.56429 C441.816998,851.181985 441.507079,850.872066 441.124775,850.872066 C440.742471,850.872066 440.432552,851.181985 440.432552,851.56429 L440.432552,860.165076 L441.124775,859.472853 L422.692223,859.472853 L423.384446,860.165076 L423.384446,841.088901 L422.692223,841.781124 L435.320608,841.781124 C435.702912,841.781124 436.012831,841.471205 436.012831,841.088901 C436.012831,840.706597 435.702912,840.396678 435.320608,840.396678 Z" id="Shape" sketch:type="MSShapeGroup"></path>
        </g>
    </g>
</svg>