<?xml version="1.0" encoding="UTF-8" standalone="no"?>
<svg width="12px" height="11px" viewBox="0 0 12 11" version="1.1" xmlns="http://www.w3.org/2000/svg" xmlns:xlink="http://www.w3.org/1999/xlink" xmlns:sketch="http://www.bohemiancoding.com/sketch/ns">
    <!-- Generator: Sketch 3.3.2 (12043) - http://www.bohemiancoding.com/sketch -->
    <title>Fill 92</title>
    <desc>Created with Sketch.</desc>
    <defs></defs>
    <g id="图标" stroke="none" stroke-width="1" fill="none" fill-rule="evenodd" sketch:type="MSPage">
        <g id="header" sketch:type="MSLayerGroup" transform="translate(-918.000000, -210.000000)" fill="#FFFFFF">
            <g id="Group" transform="translate(894.000000, 31.000000)" sketch:type="MSShapeGroup">
                <path d="M30.375,185.875 L34.5,185.875 L34.5,186.5625 L30.375,186.5625 L30.375,189.3125 L29.625,189.3125 L29.625,186.5625 L25.5,186.5625 L25.5,185.875 L29.625,185.875 L29.625,183.125 L24.75,183.125 L24.75,188.625 C24.75,189.384344 25.421625,190 26.25,190 L33.75,190 C34.578375,190 35.25,189.384344 35.25,188.625 L35.25,183.125 L30.375,183.125 L30.375,185.875 L30.375,185.875 Z M31.125,181.0625 C30.711,181.0625 30.375,180.7545 30.375,180.375 C30.375,179.9955 30.711,179.6875 31.125,179.6875 C31.539,179.6875 31.875,179.9955 31.875,180.375 C31.875,180.7545 31.539,181.0625 31.125,181.0625 L31.125,181.0625 Z M28.875,181.0625 C28.461,181.0625 28.125,180.7545 28.125,180.375 C28.125,179.9955 28.461,179.6875 28.875,179.6875 C29.289,179.6875 29.625,179.9955 29.625,180.375 C29.625,180.7545 29.289,181.0625 28.875,181.0625 L28.875,181.0625 Z M35.25,181.0625 L32.416875,181.0625 C32.545875,180.859687 32.625,180.626625 32.625,180.375 C32.625,179.615656 31.953375,179 31.125,179 C30.67425,179 30.274875,179.185969 30,179.474375 C29.725125,179.185969 29.32575,179 28.875,179 C28.046625,179 27.375,179.615656 27.375,180.375 C27.375,180.626625 27.454125,180.859687 27.583125,181.0625 L24.75,181.0625 C24.336,181.0625 24,181.3705 24,181.75 L24,182.4375 L36,182.4375 L36,181.75 C36,181.3705 35.664,181.0625 35.25,181.0625 L35.25,181.0625 Z" id="Fill-92"></path>
            </g>
        </g>
    </g>
</svg>