<?xml version="1.0" encoding="UTF-8" standalone="no"?>
<svg width="20px" height="21px" viewBox="0 0 20 21" version="1.1" xmlns="http://www.w3.org/2000/svg" xmlns:xlink="http://www.w3.org/1999/xlink" xmlns:sketch="http://www.bohemiancoding.com/sketch/ns">
    <!-- Generator: Sketch 3.3.2 (12043) - http://www.bohemiancoding.com/sketch -->
    <title>Fill 177</title>
    <desc>Created with Sketch.</desc>
    <defs></defs>
    <g id="图标" stroke="none" stroke-width="1" fill="none" fill-rule="evenodd" sketch:type="MSPage">
        <g id="rightbar" sketch:type="MSLayerGroup" transform="translate(-211.000000, -559.000000)" fill="#FFFFFF">
            <g id="Rectangle-287-+-充值-3" transform="translate(201.000000, 559.000000)" sketch:type="MSShapeGroup">
                <path d="M26.5748364,1.18918481 L22.5879862,5.1670648 L15.1932135,2.40343236 C14.4848709,2.22023229 13.7715266,1.98326019 12.8931317,2.86424619 C12.4448689,3.31318015 11.5133326,4.24731292 12.8931317,5.6297544 L17.9634399,9.78145562 L14.664301,13.0740548 L11.5858549,12.3043644 C11.1294646,12.1868163 10.8218701,12.2787289 10.5874231,12.537585 C10.4692617,12.6851455 9.61212333,13.3204058 10.209807,13.9194012 L13.789032,16.7042924 L16.5736378,20.2838841 C17.0062707,20.717812 17.4082693,20.447076 17.9578132,19.9249871 C18.3060452,19.5760941 18.2310221,19.3966456 18.1259899,18.8883123 L17.4307762,15.8308094 L20.7074082,12.542587 L24.8524321,17.6146654 C26.2316059,18.9971069 27.1637674,18.0623488 27.6120302,17.6146654 C28.4910503,16.7330541 28.2547277,16.0190116 28.0715464,15.3093458 L25.3313293,7.9013102 L29.3019245,3.91655239 C30.0852903,3.13185585 30.285977,1.7831782 29.5063624,1.0022332 C28.727373,0.220662941 27.3582022,0.40386301 26.5748364,1.18918481 Z" id="Fill-177"></path>
            </g>
        </g>
    </g>
</svg>