<?xml version="1.0" encoding="UTF-8" standalone="no"?>
<svg width="20px" height="19px" viewBox="0 0 20 19" version="1.1" xmlns="http://www.w3.org/2000/svg" xmlns:xlink="http://www.w3.org/1999/xlink" xmlns:sketch="http://www.bohemiancoding.com/sketch/ns">
    <!-- Generator: Sketch 3.3.2 (12043) - http://www.bohemiancoding.com/sketch -->
    <title>Fill 105</title>
    <desc>Created with Sketch.</desc>
    <defs></defs>
    <g id="图标" stroke="none" stroke-width="1" fill="none" fill-rule="evenodd" sketch:type="MSPage">
        <g id="rightbar" sketch:type="MSLayerGroup" transform="translate(-212.000000, -610.000000)" fill="#FFFFFF">
            <g id="Rectangle-287-+-充值-4" transform="translate(201.000000, 610.000000)" sketch:type="MSShapeGroup">
                <path d="M14.125,8.86666667 L21.795625,8.86666667 L19.30125,6.7773 C19.05625,6.52966667 19.05625,6.12686667 19.30125,5.8786 C19.5475,5.63033333 19.945625,5.63033333 20.19125,5.8786 L23.929375,9.00853333 C24.06,9.14153333 24.115625,9.31696667 24.106875,9.48986667 C24.115625,9.6634 24.06,9.83883333 23.929375,9.97183333 L20.19125,13.1017667 C19.945625,13.3500333 19.5475,13.3500333 19.30125,13.1017667 C19.05625,12.8535 19.05625,12.4507 19.30125,12.2030667 L21.771875,10.1333333 L14.125,10.1333333 C13.78,10.1333333 13.5,9.85023333 13.5,9.5 C13.5,9.14976667 13.78,8.86666667 14.125,8.86666667 L14.125,8.86666667 Z M11,2.53333333 L11,16.4666667 C11,17.8657 12.119375,19 13.5,19 L26,19 L26,0 L13.5,0 C12.119375,0 11,1.1343 11,2.53333333 L11,2.53333333 Z M28.5,0 L27.25,0 L27.25,19 L28.5,19 C29.880625,19 31,17.8657 31,16.4666667 L31,2.53333333 C31,1.1343 29.880625,0 28.5,0 L28.5,0 Z" id="Fill-105"></path>
            </g>
        </g>
    </g>
</svg>