<?xml version="1.0" encoding="UTF-8" standalone="no"?>
<svg width="20px" height="20px" viewBox="0 0 20 20" version="1.1" xmlns="http://www.w3.org/2000/svg" xmlns:xlink="http://www.w3.org/1999/xlink" xmlns:sketch="http://www.bohemiancoding.com/sketch/ns">
    <!-- Generator: Sketch 3.3.2 (12043) - http://www.bohemiancoding.com/sketch -->
    <title>Oval 21</title>
    <desc>Created with Sketch.</desc>
    <defs></defs>
    <g id="图标" stroke="none" stroke-width="1" fill="none" fill-rule="evenodd" sketch:type="MSPage">
        <g id="rightbar" sketch:type="MSLayerGroup" transform="translate(-213.000000, -661.000000)" fill="#FFFFFF">
            <g id="Rectangle-287-+-充值-4-Copy" transform="translate(201.000000, 661.000000)" sketch:type="MSShapeGroup">
                <path d="M22,20 C27.5228475,20 32,15.5228475 32,10 C32,4.4771525 27.5228475,0 22,0 C16.4771525,0 12,4.4771525 12,10 C12,15.5228475 16.4771525,20 22,20 Z M16.2490234,12.4770508 L16.7763672,11.2099609 L17.3330078,11.2099609 C17.3183593,10.9853504 17.3110352,10.7680675 17.3110352,10.5581055 C17.3110352,10.2749009 17.3232421,10.0112317 17.3476562,9.76708984 L16.2490234,9.76708984 L16.7763672,8.5 L17.6040039,8.5 C18.3754921,6.08787856 20.113756,4.88183594 22.8188477,4.88183594 C23.707524,4.88183594 24.5522421,4.9941395 25.3530273,5.21875 L25.3530273,6.81542969 C24.6010705,6.48827961 23.8027386,6.32470703 22.9580078,6.32470703 C21.336906,6.32470703 20.2944359,7.04979744 19.8305664,8.5 L24.6572266,8.5 L24.1298828,9.76708984 L19.515625,9.76708984 C19.4912108,9.92334063 19.4790039,10.1332995 19.4790039,10.3969727 C19.4790039,10.6997085 19.4887694,10.9707019 19.5083008,11.2099609 L23.5292969,11.2099609 L23.0092773,12.4770508 L19.7866211,12.4770508 C20.1333025,13.3559614 20.5556616,13.9675276 21.0537109,14.3117676 C21.5517603,14.6560076 22.2622024,14.828125 23.1850586,14.828125 C23.8442416,14.828125 24.5668906,14.6718766 25.3530273,14.359375 L25.3530273,15.8608398 C24.6059533,16.1342787 23.7172903,16.2709961 22.6870117,16.2709961 C19.9770372,16.2709961 18.2631872,15.0063603 17.5454102,12.4770508 L16.2490234,12.4770508 Z" id="Oval-21"></path>
            </g>
        </g>
    </g>
</svg>