<?xml version="1.0" encoding="UTF-8" standalone="no"?>
<svg width="20px" height="21px" viewBox="0 0 20 21" version="1.1" xmlns="http://www.w3.org/2000/svg" xmlns:xlink="http://www.w3.org/1999/xlink" xmlns:sketch="http://www.bohemiancoding.com/sketch/ns">
    <!-- Generator: Sketch 3.3.2 (12043) - http://www.bohemiancoding.com/sketch -->
    <title>Fill 213</title>
    <desc>Created with Sketch.</desc>
    <defs></defs>
    <g id="图标" stroke="none" stroke-width="1" fill="none" fill-rule="evenodd" sketch:type="MSPage">
        <g id="rightbar" sketch:type="MSLayerGroup" transform="translate(-211.000000, -506.000000)" fill="#FFFFFF">
            <g id="Rectangle-287-+-充值-2" transform="translate(201.000000, 506.000000)" sketch:type="MSShapeGroup">
                <path d="M29.6359997,2.65090503 L27.4394896,0.454647724 C26.9535306,-0.030215908 26.1673651,-0.030215908 25.6820314,0.454647724 L23.5399337,2.59592049 L25.297392,2.59592049 L26.1210832,1.77302693 C26.3637501,1.52997029 26.7571455,1.52997029 27.0004378,1.77302693 L28.3182188,3.09015649 C28.5608856,3.33321313 28.5608856,3.72622759 28.3182188,3.96865941 L27.5120395,4.77468271 L27.5120395,6.53106373 L29.6359997,4.40728604 C30.1213334,3.92304724 30.1213334,3.13576866 29.6359997,2.65090503 L29.6359997,2.65090503 Z M16.8947401,10.996058 C17.1280255,11.2291174 18.2681844,12.3687969 19.0912502,13.1923153 L26.1210832,6.16491671 L23.9089374,3.98428001 L16.8947401,10.996058 L16.8947401,10.996058 Z M14.1985115,15.4491805 C14.0559134,15.73535 14.3311026,16.0302671 14.6369379,15.8878071 L17.9967478,13.8552538 L16.2324098,12.0901252 L14.1985115,15.4491805 L14.1985115,15.4491805 Z M19.3264119,14.3888537 L13.8857965,17.0774726 C13.2728751,17.3617676 12.782538,16.8131719 13.0083182,16.2002193 L15.6976671,10.761124 C15.743949,10.5268149 15.8340109,10.2993789 16.016011,10.117555 L23.5399337,2.59592049 L11.751204,2.59592049 C10.7842892,2.59592049 10,3.37945012 10,4.34542844 L10,18.341492 C10,19.3074704 10.7842892,20.091 11.751204,20.091 L25.7608356,20.091 C26.7277503,20.091 27.5120395,19.3074704 27.5120395,18.341492 L27.5120395,6.53106373 L19.9699794,14.0708182 C19.7886047,14.2520172 19.5609482,14.3432416 19.3264119,14.3888537 L19.3264119,14.3888537 Z M27.0004378,5.28641379 L27.5120395,4.77468271 L27.5120395,4.34542844 C27.5120395,3.37945012 26.7277503,2.59592049 25.7608356,2.59592049 L25.297392,2.59592049 L24.8345738,3.05829045 L27.0004378,5.28641379 L27.0004378,5.28641379 Z" id="Fill-213"></path>
            </g>
        </g>
    </g>
</svg>