<?xml version="1.0" encoding="UTF-8" standalone="no"?>
<svg width="37px" height="30px" viewBox="0 0 37 30" version="1.1" xmlns="http://www.w3.org/2000/svg" xmlns:xlink="http://www.w3.org/1999/xlink" xmlns:sketch="http://www.bohemiancoding.com/sketch/ns">
    <!-- Generator: Sketch 3.3.2 (12043) - http://www.bohemiancoding.com/sketch -->
    <title>Fill 97</title>
    <desc>Created with Sketch.</desc>
    <defs></defs>
    <g id="首页" stroke="none" stroke-width="1" fill="none" fill-rule="evenodd" sketch:type="MSPage">
        <g id="会员中心首页" sketch:type="MSArtboardGroup" transform="translate(-634.000000, -284.000000)" fill="#4A90E2">
            <g id="action_bar" sketch:type="MSLayerGroup" transform="translate(379.000000, 243.000000)">
                <path d="M290.84375,47.9230769 L283.298063,47.9230769 L285.640625,43.3076923 L288.53125,43.3076923 C289.170656,43.3076923 289.6875,42.7919231 289.6875,42.1538462 C289.6875,41.5157692 289.170656,41 288.53125,41 L283.90625,41 L280.340375,47.9230769 L266.75675,47.9230769 L263.09375,41 L258.46875,41 C257.829344,41 257.3125,41.5157692 257.3125,42.1538462 C257.3125,42.7919231 257.829344,43.3076923 258.46875,43.3076923 L261.359375,43.3076923 L263.840688,47.9230769 L256.15625,47.9230769 C255.516844,47.9230769 255,48.44 255,49.0769231 C255,49.715 255.516844,50.2307692 256.15625,50.2307692 L257.3125,50.2307692 L257.643188,54.8461538 L266.5625,54.8461538 L266.5625,50.2307692 L268.875,50.2307692 L268.875,54.8461538 L278.125,54.8461538 L278.125,50.2307692 L280.4375,50.2307692 L280.4375,54.8461538 L289.027281,54.8461538 L289.6875,50.2307692 L290.84375,50.2307692 C291.483156,50.2307692 292,49.715 292,49.0769231 C292,48.44 291.483156,47.9230769 290.84375,47.9230769 L290.84375,47.9230769 Z M280.4375,61.7692308 L288.035219,61.7692308 L288.696594,57.1538462 L280.4375,57.1538462 L280.4375,61.7692308 L280.4375,61.7692308 Z M268.875,61.7692308 L278.125,61.7692308 L278.125,57.1538462 L268.875,57.1538462 L268.875,61.7692308 Z M266.5625,57.1538462 L257.808531,57.1538462 L258.138062,61.7692308 L266.5625,61.7692308 L266.5625,57.1538462 L266.5625,57.1538462 Z M280.4375,68.6923077 L278.125,68.6923077 L278.125,64.0769231 L268.875,64.0769231 L268.875,68.6923077 L266.5625,68.6923077 L266.5625,64.0769231 L258.303406,64.0769231 L258.46875,66.3846154 C258.46875,68.9334615 260.539594,71 263.09375,71 L282.75,71 C285.304156,71 287.375,68.9334615 287.375,66.3846154 L287.705688,64.0769231 L280.4375,64.0769231 L280.4375,68.6923077 L280.4375,68.6923077 Z" id="Fill-97" sketch:type="MSShapeGroup"></path>
            </g>
        </g>
    </g>
</svg>