<?xml version="1.0" encoding="UTF-8" standalone="no"?>
<svg width="40px" height="30px" viewBox="0 0 40 30" version="1.1" xmlns="http://www.w3.org/2000/svg" xmlns:xlink="http://www.w3.org/1999/xlink" xmlns:sketch="http://www.bohemiancoding.com/sketch/ns">
    <!-- Generator: Sketch 3.3.2 (12043) - http://www.bohemiancoding.com/sketch -->
    <title>Fill 184</title>
    <desc>Created with Sketch.</desc>
    <defs></defs>
    <g id="首页" stroke="none" stroke-width="1" fill="none" fill-rule="evenodd" sketch:type="MSPage">
        <g id="会员中心首页" sketch:type="MSArtboardGroup" transform="translate(-451.000000, -284.000000)" fill="#4A90E2">
            <g id="action_bar" sketch:type="MSLayerGroup" transform="translate(379.000000, 243.000000)">
                <path d="M103.25,48.5 L100.75,48.5 C100.05875,48.5 99.5,49.06 99.5,49.75 L99.5,52.25 C99.5,52.94125 100.05875,53.5 100.75,53.5 L103.25,53.5 C103.94125,53.5 104.5,52.94125 104.5,52.25 L104.5,49.75 C104.5,49.06 103.94125,48.5 103.25,48.5 L103.25,48.5 Z M107,53.5 C107,54.88 105.88,56 104.5,56 L99.5,56 C98.12,56 97,54.88 97,53.5 L97,48.5 C97,47.12 98.12,46 99.5,46 L104.5,46 C105.88,46 107,47.12 107,48.5 L107,53.5 L107,53.5 Z M93.25,61 L78.25,61 C77.55875,61 77,60.44125 77,59.75 C77,59.06 77.55875,58.5 78.25,58.5 L93.25,58.5 C93.94125,58.5 94.5,59.06 94.5,59.75 C94.5,60.44125 93.94125,61 93.25,61 L93.25,61 Z M93.25,66 L78.25,66 C77.55875,66 77,65.44125 77,64.75 C77,64.05875 77.55875,63.5 78.25,63.5 L93.25,63.5 C93.94125,63.5 94.5,64.05875 94.5,64.75 C94.5,65.44125 93.94125,66 93.25,66 L93.25,66 Z M107,41 L77,41 C74.23875,41 72,43.23875 72,46 L72,66 C72,68.76125 74.23875,71 77,71 L107,71 C109.76125,71 112,68.76125 112,66 L112,46 C112,43.23875 109.76125,41 107,41 L107,41 Z" id="Fill-184" sketch:type="MSShapeGroup"></path>
            </g>
        </g>
    </g>
</svg>