<?xml version="1.0" encoding="UTF-8" standalone="no"?>
<svg width="28px" height="32px" viewBox="0 0 28 32" version="1.1" xmlns="http://www.w3.org/2000/svg" xmlns:xlink="http://www.w3.org/1999/xlink" xmlns:sketch="http://www.bohemiancoding.com/sketch/ns">
    <!-- Generator: Sketch 3.3.2 (12043) - http://www.bohemiancoding.com/sketch -->
    <title>Fill 214</title>
    <desc>Created with Sketch.</desc>
    <defs></defs>
    <g id="首页" stroke="none" stroke-width="1" fill="none" fill-rule="evenodd" sketch:type="MSPage">
        <g id="会员中心首页" sketch:type="MSArtboardGroup" transform="translate(-814.000000, -282.000000)" fill="#4A90E2">
            <g id="action_bar" sketch:type="MSLayerGroup" transform="translate(379.000000, 243.000000)">
                <path d="M456,55 L442,55 C441.447,55 441,54.553 441,54 C441,53.448 441.447,53 442,53 L456,53 C456.553,53 457,53.448 457,54 C457,54.553 456.553,55 456,55 L456,55 Z M456,60 L442,60 C441.447,60 441,59.553 441,59 C441,58.448 441.447,58 442,58 L456,58 C456.553,58 457,58.448 457,59 C457,59.553 456.553,60 456,60 L456,60 Z M456,65 L442,65 C441.447,65 441,64.553 441,64 C441,63.448 441.447,63 442,63 L456,63 C456.553,63 457,63.448 457,64 C457,64.553 456.553,65 456,65 L456,65 Z M444,43 L446.223,43 C446.223,41.896 447.466,41 449,41 C450.534,41 451.777,41.896 451.777,43 L454,43 L454,47 L444,47 L444,43 L444,43 Z M459,43 L456,43 L456,41 L453.307,41 C452.44,39.81 450.846,39 449,39 C447.154,39 445.56,39.81 444.693,41 L442,41 L442,43 L439,43 C436.791,43 435,44.791 435,47 L435,67 C435,69.209 436.791,71 439,71 L459,71 C461.209,71 463,69.209 463,67 L463,47 C463,44.791 461.209,43 459,43 L459,43 Z" id="Fill-214" sketch:type="MSShapeGroup"></path>
            </g>
        </g>
    </g>
</svg>