<?xml version="1.0" encoding="UTF-8" standalone="no"?>
<svg width="16px" height="16px" viewBox="0 0 16 16" version="1.1" xmlns="http://www.w3.org/2000/svg" xmlns:xlink="http://www.w3.org/1999/xlink" xmlns:sketch="http://www.bohemiancoding.com/sketch/ns">
    <!-- Generator: Sketch 3.3.2 (12043) - http://www.bohemiancoding.com/sketch -->
    <title>Oval 21</title>
    <desc>Created with Sketch.</desc>
    <defs></defs>
    <g id="图标" stroke="none" stroke-width="1" fill="none" fill-rule="evenodd" sketch:type="MSPage">
        <path d="M8,16 C12.418278,16 16,12.418278 16,8 C16,3.581722 12.418278,0 8,0 C3.581722,0 0,3.581722 0,8 C0,12.418278 3.581722,16 8,16 Z M5.87686957,6.3666087 C5.89171022,5.83234515 5.95478205,5.42608835 6.06608696,5.14782609 C6.17739186,4.86956383 6.35547704,4.6209866 6.60034783,4.40208696 C6.84521862,4.18318731 7.11791154,4.02179762 7.41843478,3.91791304 C7.71895802,3.81402847 8.03617224,3.76208696 8.37008696,3.76208696 C9.04533671,3.76208696 9.60741805,3.96057773 10.0563478,4.35756522 C10.5052776,4.75455271 10.7297391,5.28324307 10.7297391,5.94365217 C10.7297391,6.24046525 10.6722325,6.50944807 10.5572174,6.7506087 C10.4422023,6.99176932 10.1973352,7.29228806 9.8226087,7.65217391 C9.44788218,8.01205977 9.19930496,8.26805721 9.07686957,8.42017391 C8.95443417,8.57229062 8.86168147,8.7540859 8.7986087,8.96556522 C8.73553592,9.17704454 8.70771011,9.46086778 8.71513043,9.81704348 L7.73565217,9.81704348 C7.73565217,9.40150517 7.76904314,9.06945052 7.83582609,8.82086957 C7.90260903,8.57228861 8.00278194,8.3552473 8.13634783,8.16973913 C8.26991371,7.98423096 8.51107072,7.71153803 8.85982609,7.35165217 C9.20858145,6.99176632 9.43304298,6.73020371 9.53321739,6.56695652 C9.63339181,6.40370933 9.68347826,6.16069727 9.68347826,5.83791304 C9.68347826,5.51512882 9.56846492,5.22945052 9.33843478,4.98086957 C9.10840465,4.73228861 8.77449494,4.608 8.33669565,4.608 C7.34979217,4.608 6.85634783,5.19419704 6.85634783,6.3666087 L5.87686957,6.3666087 Z M8.79304348,11.853913 L7.7133913,11.853913 L7.7133913,10.7186087 L8.79304348,10.7186087 L8.79304348,11.853913 Z" id="Oval-21" fill="#C5C5C5" sketch:type="MSShapeGroup"></path>
    </g>
</svg>