<?xml version="1.0" encoding="UTF-8" standalone="no"?>
<svg width="24px" height="20px" viewBox="0 0 24 20" version="1.1" xmlns="http://www.w3.org/2000/svg" xmlns:xlink="http://www.w3.org/1999/xlink">
    <!-- Generator: Sketch 3.6.1 (26313) - http://www.bohemiancoding.com/sketch -->
    <title>Rectangle 13</title>
    <desc>Created with Sketch.</desc>
    <defs></defs>
    <g id="帮助" stroke="none" stroke-width="1" fill="none" fill-rule="evenodd">
        <g transform="translate(-228.000000, -315.000000)" id="Rectangle-13" fill="#175460">
            <path d="M228,319.995253 C228,317.236451 230.23631,315 233.001973,315 L246.998027,315 C249.760541,315 252,317.236038 252,319.995253 L252,330.004747 C252,332.763549 249.76369,335 246.998027,335 L233.001973,335 C230.239459,335 228,332.763962 228,330.004747 L228,319.995253 Z M234.272,320.897931 L238.666667,320.897931 L238.666667,321.681379 L235.04,321.681379 L235.04,324.153103 L238.634667,324.153103 L238.634667,324.925517 L235.04,324.925517 L235.04,328.037241 L238.634667,328.037241 L238.634667,328.82069 L234.272,328.82069 L234.272,320.897931 Z M239.989333,328.82069 L239.989333,320.897931 L240.16,320.897931 L245.248,326.966897 L245.248,320.897931 L246.005333,320.897931 L246.005333,328.82069 L245.834667,328.82069 L240.778667,322.828966 L240.778667,328.82069 L239.989333,328.82069 Z"></path>
        </g>
    </g>
</svg>