<?xml version="1.0" encoding="UTF-8" standalone="no"?>
<svg width="22px" height="24px" viewBox="0 0 22 24" version="1.1" xmlns="http://www.w3.org/2000/svg" xmlns:xlink="http://www.w3.org/1999/xlink">
    <!-- Generator: Sketch 3.6.1 (26313) - http://www.bohemiancoding.com/sketch -->
    <title>Fill 107</title>
    <desc>Created with Sketch.</desc>
    <defs></defs>
    <g id="帮助" stroke="none" stroke-width="1" fill="none" fill-rule="evenodd">
        <g transform="translate(-229.000000, -133.000000)" id="Fill-107" fill="#175460">
            <path d="M244.170467,144.0295 L240.546333,148.51525 C240.392333,148.672 240.1892,148.73875 239.988267,148.72825 C239.788067,148.73875 239.584933,148.672 239.430933,148.51525 L235.8068,144.0295 C235.519333,143.73475 235.519333,143.257 235.8068,142.9615 C236.094267,142.6675 236.560667,142.6675 236.8474,142.9615 L239.266667,145.95475 L239.266667,136.75 C239.266667,136.336 239.594467,136 240,136 C240.405533,136 240.733333,136.336 240.733333,136.75 L240.733333,145.92625 L243.129867,142.9615 C243.4166,142.6675 243.883,142.6675 244.170467,142.9615 C244.457933,143.257 244.457933,143.73475 244.170467,144.0295 L244.170467,144.0295 Z M248.066667,133 L231.933333,133 C230.3134,133 229,134.34325 229,136 L229,151 L251,151 L251,136 C251,134.34325 249.6866,133 248.066667,133 L248.066667,133 Z M229,154 C229,155.65675 230.3134,157 231.933333,157 L248.066667,157 C249.6866,157 251,155.65675 251,154 L251,152.5 L229,152.5 L229,154 L229,154 Z"></path>
        </g>
    </g>
</svg>