<?xml version="1.0" encoding="UTF-8" standalone="no"?>
<svg width="21px" height="22px" viewBox="0 0 21 22" version="1.1" xmlns="http://www.w3.org/2000/svg" xmlns:xlink="http://www.w3.org/1999/xlink">
    <!-- Generator: Sketch 3.6.1 (26313) - http://www.bohemiancoding.com/sketch -->
    <title>Fill 188</title>
    <desc>Created with Sketch.</desc>
    <defs></defs>
    <g id="帮助" stroke="none" stroke-width="1" fill="none" fill-rule="evenodd">
        <g transform="translate(-228.000000, -373.000000)" id="Fill-188" fill="#175460">
            <path d="M232.403226,379.875 C232.964806,379.875 233.419355,380.337 233.419355,380.90625 C233.419355,381.476187 232.964806,381.9375 232.403226,381.9375 C231.841645,381.9375 231.387097,381.476187 231.387097,380.90625 C231.387097,380.337 231.841645,379.875 232.403226,379.875 L232.403226,379.875 Z M236.467742,379.875 C237.029323,379.875 237.483871,380.337 237.483871,380.90625 C237.483871,381.476187 237.029323,381.9375 236.467742,381.9375 C235.906161,381.9375 235.451613,381.476187 235.451613,380.90625 C235.451613,380.337 235.906161,379.875 236.467742,379.875 L236.467742,379.875 Z M240.532258,379.875 C241.093839,379.875 241.548387,380.337 241.548387,380.90625 C241.548387,381.476187 241.093839,381.9375 240.532258,381.9375 C239.970677,381.9375 239.516129,381.476187 239.516129,380.90625 C239.516129,380.337 239.970677,379.875 240.532258,379.875 L240.532258,379.875 Z M234.52829,388.631 C235.054645,388.718313 236.251645,388.8125 236.806452,388.8125 C241.670323,388.8125 244.935484,385.139187 244.935484,380.820312 C244.935484,376.501438 240.855387,373 236.806452,373 C231.936484,373 228,376.501438 228,380.820312 C228,383.322812 228.939581,385.4465 230.709677,386.976187 L230.709677,390.875 L234.52829,388.631 L234.52829,388.631 Z M246.255774,379.283062 L246.290323,379.875 C246.295742,380.436688 246.290323,380.385125 246.290323,380.90625 C246.290323,386.389062 242.033419,390.1875 236.129032,390.1875 L234.096774,390.1875 C235.709032,391.788 237.584806,392.765625 240.193548,392.765625 C240.748355,392.765625 241.289613,392.71475 241.815968,392.627437 L245.612903,395 L245.612903,391.101187 C247.672258,389.669125 249,387.447812 249,384.945312 C249,382.715063 247.942548,380.707562 246.255774,379.283062 L246.255774,379.283062 Z"></path>
        </g>
    </g>
</svg>