<?xml version="1.0" encoding="UTF-8" standalone="no"?>
<svg width="22px" height="22px" viewBox="0 0 22 22" version="1.1" xmlns="http://www.w3.org/2000/svg" xmlns:xlink="http://www.w3.org/1999/xlink">
    <!-- Generator: Sketch 3.6.1 (26313) - http://www.bohemiancoding.com/sketch -->
    <title>Fill 177</title>
    <desc>Created with Sketch.</desc>
    <defs></defs>
    <g id="帮助" stroke="none" stroke-width="1" fill="none" fill-rule="evenodd">
        <g transform="translate(-227.000000, -192.000000)" id="Fill-177" fill="#175460">
            <path d="M248.456999,192.552457 C247.60011,191.692729 246.094022,191.894249 245.23232,192.758103 L240.846785,197.133771 L232.712535,194.093776 C231.933358,193.892256 231.148679,193.631586 230.182445,194.600671 C229.689356,195.094498 228.664666,196.122044 230.182445,197.64273 L235.759784,202.209601 L232.130731,205.83146 L228.74444,204.984801 C228.242411,204.855498 227.904057,204.956602 227.646165,205.241343 C227.516188,205.40366 226.573336,206.102446 227.230788,206.761341 L231.167935,209.824722 L234.231002,213.762273 C234.706898,214.239593 235.149096,213.941784 235.753594,213.367486 C236.13665,212.983704 236.054124,212.78631 235.938589,212.227144 L235.173854,208.86389 L238.778149,205.246846 L243.337675,210.826132 C244.854767,212.346818 245.880144,211.318584 246.373233,210.826132 C247.340155,209.85636 247.0802,209.070913 246.878701,208.29028 L243.864462,200.141441 L248.232117,195.758208 C249.093819,194.895041 249.314575,193.411496 248.456999,192.552457"></path>
        </g>
    </g>
</svg>