<?xml version="1.0" encoding="UTF-8" standalone="no"?>
<svg width="22px" height="21px" viewBox="0 0 22 21" version="1.1" xmlns="http://www.w3.org/2000/svg" xmlns:xlink="http://www.w3.org/1999/xlink">
    <!-- Generator: Sketch 3.6.1 (26313) - http://www.bohemiancoding.com/sketch -->
    <title>Fill 105</title>
    <desc>Created with Sketch.</desc>
    <defs></defs>
    <g id="帮助" stroke="none" stroke-width="1" fill="none" fill-rule="evenodd">
        <g transform="translate(-228.000000, -253.000000)" id="Fill-105" fill="#175460">
            <path d="M231.4375,262.8 L239.875188,262.8 L237.131375,260.4907 C236.861875,260.217 236.861875,259.7718 237.131375,259.4974 C237.40225,259.223 237.840187,259.223 238.110375,259.4974 L242.222313,262.9568 C242.366,263.1038 242.427188,263.2977 242.417563,263.4888 C242.427188,263.6806 242.366,263.8745 242.222313,264.0215 L238.110375,267.4809 C237.840187,267.7553 237.40225,267.7553 237.131375,267.4809 C236.861875,267.2065 236.861875,266.7613 237.131375,266.4876 L239.849063,264.2 L231.4375,264.2 C231.058,264.2 230.75,263.8871 230.75,263.5 C230.75,263.1129 231.058,262.8 231.4375,262.8 L231.4375,262.8 Z M228,255.8 L228,271.2 C228,272.7463 229.231313,274 230.75,274 L244.5,274 L244.5,253 L230.75,253 C229.231313,253 228,254.2537 228,255.8 L228,255.8 Z M247.25,253 L245.875,253 L245.875,274 L247.25,274 C248.768687,274 250,272.7463 250,271.2 L250,255.8 C250,254.2537 248.768687,253 247.25,253 L247.25,253 Z"></path>
        </g>
    </g>
</svg>