<?xml version="1.0" encoding="UTF-8" standalone="no"?>
<svg width="21px" height="16px" viewBox="0 0 21 16" version="1.1" xmlns="http://www.w3.org/2000/svg" xmlns:xlink="http://www.w3.org/1999/xlink">
    <!-- Generator: Sketch 3.6.1 (26313) - http://www.bohemiancoding.com/sketch -->
    <title>Fill 184</title>
    <desc>Created with Sketch.</desc>
    <defs></defs>
    <g id="帮助" stroke="none" stroke-width="1" fill="none" fill-rule="evenodd">
        <g transform="translate(-227.000000, -435.000000)" id="Fill-184" fill="#FFFFFF">
            <path d="M243.40625,439 L242.09375,439 C241.730844,439 241.4375,439.298667 241.4375,439.666667 L241.4375,441 C241.4375,441.368667 241.730844,441.666667 242.09375,441.666667 L243.40625,441.666667 C243.769156,441.666667 244.0625,441.368667 244.0625,441 L244.0625,439.666667 C244.0625,439.298667 243.769156,439 243.40625,439 L243.40625,439 Z M245.375,441.666667 C245.375,442.402667 244.787,443 244.0625,443 L241.4375,443 C240.713,443 240.125,442.402667 240.125,441.666667 L240.125,439 C240.125,438.264 240.713,437.666667 241.4375,437.666667 L244.0625,437.666667 C244.787,437.666667 245.375,438.264 245.375,439 L245.375,441.666667 L245.375,441.666667 Z M238.15625,445.666667 L230.28125,445.666667 C229.918344,445.666667 229.625,445.368667 229.625,445 C229.625,444.632 229.918344,444.333333 230.28125,444.333333 L238.15625,444.333333 C238.519156,444.333333 238.8125,444.632 238.8125,445 C238.8125,445.368667 238.519156,445.666667 238.15625,445.666667 L238.15625,445.666667 Z M238.15625,448.333333 L230.28125,448.333333 C229.918344,448.333333 229.625,448.035333 229.625,447.666667 C229.625,447.298 229.918344,447 230.28125,447 L238.15625,447 C238.519156,447 238.8125,447.298 238.8125,447.666667 C238.8125,448.035333 238.519156,448.333333 238.15625,448.333333 L238.15625,448.333333 Z M245.375,435 L229.625,435 C228.175344,435 227,436.194 227,437.666667 L227,448.333333 C227,449.806 228.175344,451 229.625,451 L245.375,451 C246.824656,451 248,449.806 248,448.333333 L248,437.666667 C248,436.194 246.824656,435 245.375,435 L245.375,435 Z"></path>
        </g>
    </g>
</svg>