<?xml version="1.0" encoding="UTF-8" standalone="no"?>
<svg width="20px" height="20px" viewBox="0 0 20 20" version="1.1" xmlns="http://www.w3.org/2000/svg" xmlns:xlink="http://www.w3.org/1999/xlink" xmlns:sketch="http://www.bohemiancoding.com/sketch/ns">
    <!-- Generator: Sketch 3.3.2 (12043) - http://www.bohemiancoding.com/sketch -->
    <title>Fill 97</title>
    <desc>Created with Sketch.</desc>
    <defs></defs>
    <g id="新闻" stroke="none" stroke-width="1" fill="none" fill-rule="evenodd" sketch:type="MSPage">
        <g id="通知列表" sketch:type="MSArtboardGroup" transform="translate(-220.000000, -300.000000)" fill="#175561">
            <g id="Group-2" sketch:type="MSLayerGroup" transform="translate(197.000000, 138.000000)">
                <path d="M39.3471632,162 L26.6372157,162 L23.0049988,168.248438 L42.9793802,168.248438 L39.3471632,162 L39.3471632,162 Z M41.1254686,176.996251 L24.8814046,176.996251 L24.8795301,173.247188 L26.1067233,173.247188 C26.7778055,173.247188 27.8419145,172.648588 28.2924269,171.732567 C28.7979255,172.622969 29.7414396,173.247188 30.6424644,173.247188 C31.5941015,173.247188 32.6419645,172.68108 32.991877,171.862534 C33.3424144,172.66171 34.3684079,173.247188 35.3006748,173.247188 C36.2254436,173.247188 37.1833292,172.567358 37.6682079,171.63884 C38.2349413,172.576106 39.0416146,173.247188 39.8757811,173.247188 C40.0588603,173.247188 40.9655086,173.277181 41.1254686,173.247188 L41.1254686,176.996251 L41.1254686,176.996251 Z M23.0206198,169.498125 L23.0049988,169.498125 C22.9937516,169.769933 23.0049988,170.392277 23.0049988,170.747813 C23.0049988,171.413272 23.2443139,172.14059 23.6304674,172.622344 L23.6492127,179.495626 C23.6492127,180.875906 24.8032992,181.995001 26.2266933,181.995001 L39.7576856,181.995001 C41.1810797,181.995001 42.3751562,180.875906 42.3751562,179.495626 L42.3751562,172.622344 C42.8125469,172.107473 43,171.578855 43,170.747813 L43,169.498125 L23.0206198,169.498125 L23.0206198,169.498125 Z" id="Fill-97" sketch:type="MSShapeGroup"></path>
            </g>
        </g>
    </g>
</svg>