<?xml version="1.0" encoding="UTF-8" standalone="no"?>
<svg width="72px" height="72px" viewBox="0 0 72 72" version="1.1" xmlns="http://www.w3.org/2000/svg" xmlns:xlink="http://www.w3.org/1999/xlink">
    <!-- Generator: Sketch 3.6.1 (26313) - http://www.bohemiancoding.com/sketch -->
    <title>通知列表 copy 4</title>
    <desc>Created with Sketch.</desc>
    <defs>
        <linearGradient x1="50%" y1="0%" x2="50%" y2="131.183744%" id="linearGradient-1">
            <stop stop-color="#044B58" offset="0%"></stop>
            <stop stop-color="#A3A3A3" offset="100%"></stop>
        </linearGradient>
    </defs>
    <g id="搜索" stroke="none" stroke-width="1" fill="none" fill-rule="evenodd">
        <g id="通知列表-copy-2" transform="translate(-613.000000, -283.000000)">
            <rect id="Rectangle-72" fill="url(#linearGradient-1)" x="-38" y="-54" width="1348" height="1079"></rect>
            <rect id="Mask" fill="#FFFFFF" x="177" y="92" width="920" height="616" rx="5"></rect>
            <g id="Group-4" transform="translate(616.000000, 299.000000)" stroke-width="3">
                <path d="M11,0 L34.5184577,0 L57,0 L57,40 L34.4178697,46 L11,40 L11,0 Z" id="Rectangle-4" stroke="#000000"></path>
                <path d="M23.8333333,9.76996262e-14 L35.5,16 L12.1666667,16 L0.5,9.76996262e-14 L23.8333333,9.76996262e-14 Z" id="Rectangle-5" stroke="#000000" fill="#FFFFFF" transform="translate(18.000000, 8.000000) scale(1, -1) translate(-18.000000, -8.000000) "></path>
                <path d="M56.8333333,9.76996262e-14 L68.5,16 L45.1666667,16 L33.5,9.76996262e-14 L56.8333333,9.76996262e-14 Z" id="Rectangle-6" stroke="#000000" fill="#FFFFFF" transform="translate(51.000000, 8.000000) scale(-1, -1) translate(-51.000000, -8.000000) "></path>
                <path d="M34.5,1.5 L34.5,43.5119019" id="Line" stroke="#0B0A0A" stroke-linecap="square"></path>
            </g>
        </g>
    </g>
</svg>