<?xml version="1.0" encoding="UTF-8" standalone="no"?>
<svg width="72px" height="72px" viewBox="0 0 72 72" version="1.1" xmlns="http://www.w3.org/2000/svg" xmlns:xlink="http://www.w3.org/1999/xlink">
    <!-- Generator: Sketch 3.6.1 (26313) - http://www.bohemiancoding.com/sketch -->
    <title>通知列表 copy 5</title>
    <desc>Created with Sketch.</desc>
    <defs>
        <linearGradient x1="50%" y1="0%" x2="50%" y2="131.183744%" id="linearGradient-1">
            <stop stop-color="#044B58" offset="0%"></stop>
            <stop stop-color="#A3A3A3" offset="100%"></stop>
        </linearGradient>
    </defs>
    <g id="搜索" stroke="none" stroke-width="1" fill="none" fill-rule="evenodd">
        <g id="通知列表-copy-2" transform="translate(-852.000000, -283.000000)">
            <rect id="Rectangle-72" fill="url(#linearGradient-1)" x="-38" y="-54" width="1348" height="1079"></rect>
            <rect id="Mask" fill="#FFFFFF" x="177" y="92" width="920" height="616" rx="5"></rect>
            <g id="Rectangle-183-+-发货管理-+-Rectangle-184" transform="translate(855.000000, 301.000000)">
                <path d="M64.84375,30.5 L64.84375,13.8647461 L52.8927765,6 L36.8125,6 L36.8125,30 L0.15625,30 L0.15625,34 L6.9881293,34 C6.75528658,34.4546277 6.625,34.9632014 6.625,35.5 C6.625,37.4329966 8.31442551,39 10.3984375,39 C12.4824495,39 14.171875,37.4329966 14.171875,35.5 C14.171875,34.9632014 14.0415884,34.4546277 13.8087457,34 L51.1912543,34 C50.9584116,34.4546277 50.828125,34.9632014 50.828125,35.5 C50.828125,37.4329966 52.5175505,39 54.6015625,39 C56.6855745,39 58.375,37.4329966 58.375,35.5 C58.375,34.9632014 58.2447134,34.4546277 58.0118707,34 L64.84375,34 L64.84375,30.5 Z" id="Rectangle-183" fill="#000000"></path>
                <rect id="Rectangle-184" stroke="#000000" stroke-width="3" x="3.390625" y="0" width="31.265625" height="29"></rect>
            </g>
        </g>
    </g>
</svg>