<?xml version="1.0" encoding="UTF-8" standalone="no"?>
<svg width="72px" height="72px" viewBox="0 0 72 72" version="1.1" xmlns="http://www.w3.org/2000/svg" xmlns:xlink="http://www.w3.org/1999/xlink">
    <!-- Generator: Sketch 3.6.1 (26313) - http://www.bohemiancoding.com/sketch -->
    <title>通知列表 copy 3</title>
    <desc>Created with Sketch.</desc>
    <defs>
        <linearGradient x1="50%" y1="0%" x2="50%" y2="131.183744%" id="linearGradient-1">
            <stop stop-color="#044B58" offset="0%"></stop>
            <stop stop-color="#A3A3A3" offset="100%"></stop>
        </linearGradient>
    </defs>
    <g id="搜索" stroke="none" stroke-width="1" fill="none" fill-rule="evenodd">
        <g id="通知列表-copy-2" transform="translate(-501.000000, -283.000000)">
            <rect id="Rectangle-72" fill="url(#linearGradient-1)" x="-38" y="-54" width="1348" height="1079"></rect>
            <rect id="Mask" fill="#FFFFFF" x="177" y="92" width="920" height="616" rx="5"></rect>
            <path d="M517.5,325 C521.089851,325 524,322.089851 524,318.5 C524,314.910149 521.089851,312 517.5,312 C513.910149,312 511,314.910149 511,318.5 C511,322.089851 513.910149,325 517.5,325 Z M537.5,324.7914 C541.089851,324.7914 544,321.881251 544,318.2914 C544,314.70155 541.089851,311.7914 537.5,311.7914 C533.910149,311.7914 531,314.70155 531,318.2914 C531,321.881251 533.910149,324.7914 537.5,324.7914 Z M557.5,324.7914 C561.089851,324.7914 564,321.881251 564,318.2914 C564,314.70155 561.089851,311.7914 557.5,311.7914 C553.910149,311.7914 551,314.70155 551,318.2914 C551,321.881251 553.910149,324.7914 557.5,324.7914 Z" id="Oval-10" fill="#000000"></path>
        </g>
    </g>
</svg>